<svg width="80" height="81" viewBox="0 0 80 81" fill="none" xmlns="http://www.w3.org/2000/svg">
<rect y="0.5" width="80" height="80" rx="40" fill="#964B00"/>
<path d="M47.7324 32.7497C47.7302 30.6995 46.9148 28.7339 45.4651 27.2843C44.0154 25.8346 42.0499 25.0192 39.9997 25.017C29.7482 25.4223 29.7519 40.0791 39.9998 40.4832C42.05 40.4808 44.0156 39.6652 45.4652 38.2154C46.9149 36.7656 47.7302 34.7999 47.7324 32.7497ZM33.9858 32.7497C33.9877 31.1553 34.6219 29.6267 35.7493 28.4993C36.8767 27.3718 38.4053 26.7376 39.9997 26.7357C47.9596 27.0185 47.9567 38.4831 39.9996 38.7645C38.4051 38.7625 36.8765 38.1281 35.7491 37.0005C34.6217 35.8729 33.9875 34.3442 33.9858 32.7497Z" fill="#ECF0F0"/>
<path d="M45.02 55.4706C49.671 49.9074 56.3119 40.5929 56.3119 32.7497C55.4199 11.1165 24.5828 11.1086 23.6875 32.7498C23.6875 40.5929 30.3284 49.9074 34.9795 55.4706C31.4867 56.2701 29.3767 57.8505 29.3767 59.7487C29.3767 62.8756 34.8502 64.5625 39.9997 64.5625C45.1492 64.5625 50.6227 62.8756 50.6227 59.7487C50.6227 57.8505 48.5127 56.2701 45.02 55.4706ZM39.9997 18.1562C43.8688 18.1607 47.5781 19.6997 50.3139 22.4355C53.0497 25.1713 54.5887 28.8806 54.5931 32.7497C54.5931 42.5603 42.8321 55.5315 39.9997 58.5125C37.1673 55.5315 25.4063 42.5603 25.4063 32.7497C25.4107 28.8807 26.9497 25.1713 29.6855 22.4355C32.4213 19.6997 36.1307 18.1607 39.9997 18.1562ZM39.9997 62.8437C31.2249 62.6907 27.1794 58.7868 36.2654 56.9751C37.9766 58.9327 39.2188 60.1834 39.3929 60.3571C39.554 60.5177 39.7722 60.6079 39.9997 60.6079C40.2272 60.6079 40.4454 60.5177 40.6065 60.3571C40.7806 60.1834 42.0228 58.9327 43.734 56.9751C52.82 58.7868 48.7745 62.6906 39.9997 62.8437Z" fill="#ECF0F0"/>
</svg>
