<svg width="21" height="21" viewBox="0 0 21 21" fill="none" xmlns="http://www.w3.org/2000/svg">
<path d="M0.376558 1.0033C0.878308 0.501529 1.95009 0.501494 2.45185 1.00326L20.0694 18.1794C20.5712 18.6812 20.5712 19.4945 20.0694 19.9963C19.5677 20.4981 18.7541 20.4981 18.2523 19.9963L0.375842 2.73285C-0.125925 2.23108 -0.125209 1.50505 0.376558 1.0033Z" fill="white"/>
<path d="M19.1618 2.38525C19.8713 2.38525 20.4466 2.96048 20.4466 3.67008V19.0881C20.4466 19.7976 19.8713 20.3729 19.1618 20.3729H3.74381C3.03421 20.3729 2.45898 19.7976 2.45898 19.0881C2.45898 18.3783 3.03421 17.8032 3.74381 17.8032H17.877V3.67008C17.877 2.96048 18.452 2.38525 19.1618 2.38525Z" fill="white"/>
</svg>
