<svg width="100" height="100" viewBox="0 0 100 100" fill="none" xmlns="http://www.w3.org/2000/svg">
<path d="M45.8609 60.9375H21.875C21.0109 60.9375 20.3125 60.2375 20.3125 59.375C20.3125 58.5125 21.0109 57.8125 21.875 57.8125H45.8609C46.725 57.8125 47.4234 58.5125 47.4234 59.375C47.4234 60.2375 46.7234 60.9375 45.8609 60.9375Z" fill="#E58D35"/>
<path d="M45.8609 42.1875H21.875C21.0109 42.1875 20.3125 41.4875 20.3125 40.625C20.3125 39.7625 21.0109 39.0625 21.875 39.0625H45.8609C46.725 39.0625 47.4234 39.7625 47.4234 40.625C47.4234 41.4875 46.7234 42.1875 45.8609 42.1875Z" fill="#E58D35"/>
<path d="M43.75 51.5625H12.5C11.6359 51.5625 10.9375 50.8625 10.9375 50C10.9375 49.1375 11.6359 48.4375 12.5 48.4375H43.75C44.6141 48.4375 45.3125 49.1375 45.3125 50C45.3125 50.8625 44.6141 51.5625 43.75 51.5625Z" fill="#E58D35"/>
<path d="M59.375 56.0971C56.2703 56.0971 53.125 54.0033 53.125 50.0002C53.125 45.9971 56.2703 43.9033 59.375 43.9033C62.4797 43.9033 65.625 45.9971 65.625 50.0002C65.625 54.0033 62.4797 56.0971 59.375 56.0971ZM59.375 47.0283C57.9328 47.0283 56.25 47.8064 56.25 50.0002C56.25 52.1939 57.9328 52.9721 59.375 52.9721C60.8172 52.9721 62.5 52.1939 62.5 50.0002C62.5 47.8064 60.8172 47.0283 59.375 47.0283Z" fill="#E58D35"/>
<path d="M62.6898 48.2486C62.2898 48.2486 61.8898 48.0955 61.5852 47.7908C60.9742 47.1799 60.9742 46.1924 61.5852 45.5814L70.4242 36.7424C71.0352 36.1314 72.0227 36.1314 72.6336 36.7424C73.2445 37.3533 73.2445 38.3408 72.6336 38.9518L63.7945 47.7908C63.4898 48.0955 63.0898 48.2486 62.6898 48.2486Z" fill="#E58D35"/>
<path d="M53.852 57.0873C53.452 57.0873 53.052 56.9342 52.7473 56.6295C52.1363 56.0201 52.1363 55.0311 52.7473 54.4201L54.9566 52.2092C55.5676 51.5982 56.5551 51.5982 57.166 52.2092C57.777 52.8186 57.777 53.8076 57.166 54.4186L54.9566 56.6295C54.652 56.9342 54.252 57.0873 53.852 57.0873Z" fill="#E58D35"/>
<path d="M59.375 79.6875C58.5109 79.6875 57.8125 78.9875 57.8125 78.125V73.4375C57.8125 72.575 58.5109 71.875 59.375 71.875C60.2391 71.875 60.9375 72.575 60.9375 73.4375V78.125C60.9375 78.9875 60.2391 79.6875 59.375 79.6875Z" fill="#E58D35"/>
<path d="M79.2617 71.4498C78.8617 71.4498 78.4617 71.2967 78.157 70.992L74.843 67.6764C74.232 67.0654 74.232 66.0764 74.843 65.467C75.4539 64.8561 76.4414 64.8561 77.0523 65.467L80.3664 68.7826C80.9773 69.3936 80.9773 70.3826 80.3664 70.992C80.0602 71.2967 79.6602 71.4498 79.2617 71.4498Z" fill="#E58D35"/>
<path d="M75.9477 34.9908C75.5477 34.9908 75.1477 34.8377 74.843 34.533C74.232 33.9236 74.232 32.9346 74.843 32.3236L78.157 29.008C78.768 28.3971 79.7555 28.3971 80.3664 29.008C80.9773 29.6174 80.9773 30.6064 80.3664 31.2174L77.0523 34.533C76.7477 34.8377 76.3477 34.9908 75.9477 34.9908Z" fill="#E58D35"/>
<path d="M59.375 28.125C58.5109 28.125 57.8125 27.425 57.8125 26.5625V21.875C57.8125 21.0125 58.5109 20.3125 59.375 20.3125C60.2391 20.3125 60.9375 21.0125 60.9375 21.875V26.5625C60.9375 27.425 60.2391 28.125 59.375 28.125Z" fill="#E58D35"/>
<path d="M87.5 51.5625H82.8125C81.9484 51.5625 81.25 50.8625 81.25 50C81.25 49.1375 81.9484 48.4375 82.8125 48.4375H87.5C88.3641 48.4375 89.0625 49.1375 89.0625 50C89.0625 50.8625 88.3641 51.5625 87.5 51.5625Z" fill="#E58D35"/>
<path d="M48.1078 32.8125H31.25C30.3859 32.8125 29.6875 32.1125 29.6875 31.25C29.6875 30.3875 30.3859 29.6875 31.25 29.6875H48.1078C48.9719 29.6875 49.6703 30.3875 49.6703 31.25C49.6703 32.1125 48.9719 32.8125 48.1078 32.8125Z" fill="#E58D35"/>
<path d="M48.1078 70.3125H31.25C30.3859 70.3125 29.6875 69.6125 29.6875 68.75C29.6875 67.8875 30.3859 67.1875 31.25 67.1875H48.1078C48.9719 67.1875 49.6703 67.8875 49.6703 68.75C49.6703 69.6125 48.9719 70.3125 48.1078 70.3125Z" fill="#E58D35"/>
<path d="M59.2785 79.6577C54.6988 79.6577 50.0722 78.603 45.7753 76.3889C45.0082 75.9936 44.7066 75.0514 45.1019 74.2842C45.4972 73.517 46.441 73.2155 47.2066 73.6108C59.4628 79.9264 74.73 75.6952 81.9644 63.978C89.2191 52.2264 86.1832 36.6655 75.0535 28.5514C66.9925 22.6764 56.0613 21.8264 47.2066 26.3874C46.441 26.7827 45.4972 26.4827 45.1019 25.7139C44.7066 24.9467 45.0066 24.0045 45.7753 23.6092C55.6707 18.5092 67.8832 19.4577 76.8941 26.0249C89.3347 35.0936 92.73 52.4858 84.6222 65.6186C79.0738 74.6092 69.2941 79.6577 59.2785 79.6577Z" fill="#E58D35"/>
</svg>
