<svg width="80" height="81" viewBox="0 0 80 81" fill="none" xmlns="http://www.w3.org/2000/svg">
<rect y="0.5" width="80" height="80" rx="40" fill="#964B00"/>
<g clip-path="url(#clip0_194_2736)">
<path d="M56.0416 35.9747V24.4584C56.0416 21.9306 53.9861 19.875 51.4583 19.875H17.0833C14.5555 19.875 12.5 21.9305 12.5 24.4584V47.375C12.5 49.9027 14.5555 51.9584 17.0834 51.9584H42.7803C44.2816 57.2406 49.1387 61.125 54.8959 61.125C57.1114 61.125 59.2901 60.542 61.1991 59.4376C61.7463 59.1209 61.9343 58.4204 61.6164 57.8722C61.2997 57.3239 60.5981 57.1347 60.0509 57.4548C58.4911 58.3567 56.7085 58.8334 54.8958 58.8334C49.2091 58.8334 44.5833 54.2075 44.5833 48.5209C44.5833 42.8343 49.2092 38.2084 54.8958 38.2084C60.5824 38.2084 65.2083 42.8343 65.2083 48.5209V49.6667C65.2083 50.93 64.1799 51.9584 62.9166 51.9584C61.6534 51.9584 60.625 50.93 60.625 49.6667V45.0834C60.625 44.45 60.1125 43.9375 59.4791 43.9375C59.1709 43.9375 58.894 44.0622 58.6883 44.2598C57.6755 43.3573 56.3557 42.7916 54.8958 42.7916C51.7369 42.7916 49.1666 45.3619 49.1666 48.5208C49.1666 51.6796 51.7369 54.25 54.8959 54.25C56.6034 54.25 58.1217 53.484 59.1723 52.2947C60.0024 53.4739 61.368 54.25 62.9167 54.25C65.4445 54.25 67.5 52.1945 67.5 49.6666V48.5208C67.5 41.9576 62.4559 36.5563 56.0416 35.9747ZM17.0834 22.1666H51.4584C51.5061 22.1666 51.546 22.191 51.5931 22.1939L35.2131 35.6392C34.6301 36.0062 33.7852 35.9301 33.4059 35.6974L16.9501 22.1937C16.9966 22.1909 17.0361 22.1666 17.0834 22.1666ZM53.75 35.9747C47.3357 36.5563 42.2916 41.9576 42.2916 48.5209C42.2916 48.9076 42.3154 49.2887 42.3496 49.6667H17.0834C15.8201 49.6667 14.7917 48.6384 14.7917 47.3751V24.4584C14.7917 24.1338 14.8634 23.8274 14.9856 23.5474L32.0531 37.5437C32.72 37.979 33.4866 38.2085 34.271 38.2085C35.0252 38.2085 35.7625 37.9959 36.4116 37.5931C36.4765 37.5584 36.538 37.517 36.5962 37.4689L53.556 23.5472C53.6783 23.8274 53.7501 24.1338 53.7501 24.4585V35.9747H53.75ZM54.8959 51.9584C53.0003 51.9584 51.4584 50.4164 51.4584 48.5209C51.4584 46.6253 53.0003 45.0834 54.8959 45.0834C56.7914 45.0834 58.3334 46.6253 58.3334 48.5209C58.3334 50.4164 56.7914 51.9584 54.8959 51.9584Z" fill="#ECF0F0"/>
</g>
<defs>
<clipPath id="clip0_194_2736">
<rect width="55" height="55" fill="white" transform="translate(12.5 13)"/>
</clipPath>
</defs>
</svg>
