<svg width="205" height="30" viewBox="0 0 205 30" fill="none" xmlns="http://www.w3.org/2000/svg">
<path d="M0.52 29L4.04 0.159999H11.16L16.32 14.72C16.5867 15.5733 16.8 16.4933 16.96 17.48C17.12 18.4667 17.2 19.5733 17.2 20.8C17.2 19.6 17.28 18.4667 17.44 17.4C17.6267 16.3333 17.84 15.44 18.08 14.72L23.24 0.159999H30.36L33.84 29H26.68L25.36 15.88C25.2267 15.1333 25.16 14.16 25.16 12.96L25.28 9.68C25.04 12.1867 24.64 14.1867 24.08 15.68L19.36 29H15L10.28 15.68C10.0933 15.2267 9.81333 14.08 9.44 12.24L8.88 9.68L9.08 11C9.21333 12.28 9.28 13.56 9.28 14.84L9.24 15.88L7.68 29H0.52ZM46.7647 11.56V9.12H53.9247V29H46.7647V26.48C45.6714 28.56 43.8047 29.6 41.1647 29.6C38.6314 29.6 36.5514 28.6267 34.9247 26.68C33.3247 24.7067 32.5247 22.16 32.5247 19.04C32.5247 16.0533 33.3514 13.5733 35.0047 11.6C36.6847 9.6 38.7647 8.6 41.2447 8.6C43.298 8.6 44.9114 9.22666 46.0847 10.48C46.298 10.7467 46.5247 11.1067 46.7647 11.56ZM43.2447 14.48C42.098 14.48 41.1647 14.9067 40.4447 15.76C39.7247 16.6133 39.3647 17.72 39.3647 19.08C39.3647 20.4933 39.7247 21.6267 40.4447 22.48C41.1647 23.3333 42.1114 23.76 43.2847 23.76C44.458 23.76 45.4047 23.3333 46.1247 22.48C46.8447 21.6267 47.2047 20.4933 47.2047 19.08C47.2047 17.72 46.8314 16.6133 46.0847 15.76C45.338 14.9067 44.3914 14.48 43.2447 14.48ZM52.2319 26.56L54.7519 22C56.1385 23.68 57.6985 24.52 59.4319 24.52C60.0452 24.52 60.5519 24.3733 60.9519 24.08C61.3519 23.7867 61.5519 23.4133 61.5519 22.96C61.5519 22.5067 61.3252 22.1333 60.8719 21.84C60.6852 21.7067 60.4319 21.5867 60.1119 21.48C59.8185 21.3733 59.3519 21.2133 58.7119 21C57.3519 20.5733 56.3519 20.1733 55.7119 19.8C54.9919 19.3467 54.4185 18.72 53.9919 17.92C53.5652 17.12 53.3519 16.2533 53.3519 15.32C53.3519 13.3467 54.0852 11.7333 55.5519 10.48C57.0452 9.2 58.9785 8.56 61.3519 8.56C64.1519 8.56 66.4319 9.29333 68.1919 10.76L65.9519 15.28C65.3919 14.7733 64.7652 14.36 64.0719 14.04C63.4052 13.72 62.8052 13.56 62.2719 13.56C60.8852 13.56 60.1919 14.0267 60.1919 14.96C60.1919 15.3333 60.4185 15.6667 60.8719 15.96C61.0852 16.0667 61.3119 16.1733 61.5519 16.28C61.8185 16.36 62.2852 16.4933 62.9519 16.68C63.6452 16.8667 64.1785 17.0267 64.5519 17.16C65.2719 17.4 65.8452 17.6533 66.2719 17.92C67.8185 18.9067 68.5919 20.44 68.5919 22.52C68.5919 24.6533 67.8052 26.3733 66.2319 27.68C64.6585 28.9867 62.5919 29.64 60.0319 29.64C56.8052 29.64 54.2052 28.6133 52.2319 26.56ZM67.0622 19.08C67.0622 16.0133 68.0622 13.5067 70.0622 11.56C72.0889 9.58667 74.6755 8.6 77.8222 8.6C80.9955 8.6 83.5822 9.58667 85.5822 11.56C87.6089 13.5067 88.6222 16.0133 88.6222 19.08C88.6222 22.2 87.6089 24.7467 85.5822 26.72C83.5822 28.6667 80.9955 29.64 77.8222 29.64C74.6489 29.64 72.0622 28.6533 70.0622 26.68C68.0622 24.7067 67.0622 22.1733 67.0622 19.08ZM77.8222 14.48C76.6489 14.48 75.6755 14.9067 74.9022 15.76C74.1289 16.6133 73.7422 17.72 73.7422 19.08C73.7422 20.4133 74.1289 21.52 74.9022 22.4C75.6755 23.28 76.6489 23.72 77.8222 23.72C78.9955 23.72 79.9689 23.2933 80.7422 22.44C81.5422 21.56 81.9422 20.44 81.9422 19.08C81.9422 17.72 81.5555 16.6133 80.7822 15.76C80.0089 14.9067 79.0222 14.48 77.8222 14.48ZM87.9406 29V9.12H95.0606V11.92L95.5006 11.24C96.834 9.45333 98.7406 8.56 101.221 8.56C103.487 8.56 105.181 9.33333 106.301 10.88C106.754 11.4933 107.061 12.16 107.221 12.88C107.381 13.6 107.461 14.72 107.461 16.24V29H100.301V18.2V17.4C100.301 17.1067 100.261 16.7333 100.181 16.28C100.127 15.8267 99.8873 15.4133 99.4606 15.04C99.034 14.6667 98.5006 14.48 97.8606 14.48C95.994 14.48 95.0606 15.8933 95.0606 18.72V29H87.9406ZM115.877 29V0.159999H125.997C127.49 0.159999 128.743 0.226666 129.757 0.359999C131.597 0.626666 133.05 1.4 134.117 2.68C135.21 3.93333 135.757 5.52 135.757 7.44C135.757 10.32 134.463 12.32 131.877 13.44C133.743 13.76 135.197 14.5467 136.237 15.8C137.277 17.0533 137.797 18.6533 137.797 20.6C137.797 22.04 137.517 23.32 136.957 24.44C136.397 25.56 135.557 26.52 134.437 27.32C132.81 28.44 130.503 29 127.517 29H115.877ZM123.237 5.96V11.24H125.397C126.437 11.24 127.25 11 127.837 10.52C128.423 10.04 128.717 9.38667 128.717 8.56C128.717 7.73333 128.41 7.09333 127.797 6.64C127.183 6.18667 126.33 5.96 125.237 5.96H123.237ZM123.237 16.92V23.2H125.997C128.877 23.2 130.317 22.16 130.317 20.08C130.317 19.3333 130.063 18.68 129.557 18.12C129.077 17.56 128.437 17.2133 127.637 17.08C127.237 16.9733 126.663 16.92 125.917 16.92H123.237ZM136.137 19.08C136.137 16.0133 137.137 13.5067 139.137 11.56C141.164 9.58667 143.751 8.6 146.897 8.6C150.071 8.6 152.657 9.58667 154.657 11.56C156.684 13.5067 157.697 16.0133 157.697 19.08C157.697 22.2 156.684 24.7467 154.657 26.72C152.657 28.6667 150.071 29.64 146.897 29.64C143.724 29.64 141.137 28.6533 139.137 26.68C137.137 24.7067 136.137 22.1733 136.137 19.08ZM146.897 14.48C145.724 14.48 144.751 14.9067 143.977 15.76C143.204 16.6133 142.817 17.72 142.817 19.08C142.817 20.4133 143.204 21.52 143.977 22.4C144.751 23.28 145.724 23.72 146.897 23.72C148.071 23.72 149.044 23.2933 149.817 22.44C150.617 21.56 151.017 20.44 151.017 19.08C151.017 17.72 150.631 16.6133 149.857 15.76C149.084 14.9067 148.097 14.48 146.897 14.48ZM156.336 19.08C156.336 16.0133 157.336 13.5067 159.336 11.56C161.362 9.58667 163.949 8.6 167.096 8.6C170.269 8.6 172.856 9.58667 174.856 11.56C176.882 13.5067 177.896 16.0133 177.896 19.08C177.896 22.2 176.882 24.7467 174.856 26.72C172.856 28.6667 170.269 29.64 167.096 29.64C163.922 29.64 161.336 28.6533 159.336 26.68C157.336 24.7067 156.336 22.1733 156.336 19.08ZM167.096 14.48C165.922 14.48 164.949 14.9067 164.176 15.76C163.402 16.6133 163.016 17.72 163.016 19.08C163.016 20.4133 163.402 21.52 164.176 22.4C164.949 23.28 165.922 23.72 167.096 23.72C168.269 23.72 169.242 23.2933 170.016 22.44C170.816 21.56 171.216 20.44 171.216 19.08C171.216 17.72 170.829 16.6133 170.056 15.76C169.282 14.9067 168.296 14.48 167.096 14.48ZM175.574 26.56L178.094 22C179.481 23.68 181.041 24.52 182.774 24.52C183.387 24.52 183.894 24.3733 184.294 24.08C184.694 23.7867 184.894 23.4133 184.894 22.96C184.894 22.5067 184.667 22.1333 184.214 21.84C184.027 21.7067 183.774 21.5867 183.454 21.48C183.161 21.3733 182.694 21.2133 182.054 21C180.694 20.5733 179.694 20.1733 179.054 19.8C178.334 19.3467 177.761 18.72 177.334 17.92C176.907 17.12 176.694 16.2533 176.694 15.32C176.694 13.3467 177.427 11.7333 178.894 10.48C180.387 9.2 182.321 8.56 184.694 8.56C187.494 8.56 189.774 9.29333 191.534 10.76L189.294 15.28C188.734 14.7733 188.107 14.36 187.414 14.04C186.747 13.72 186.147 13.56 185.614 13.56C184.227 13.56 183.534 14.0267 183.534 14.96C183.534 15.3333 183.761 15.6667 184.214 15.96C184.427 16.0667 184.654 16.1733 184.894 16.28C185.161 16.36 185.627 16.4933 186.294 16.68C186.987 16.8667 187.521 17.0267 187.894 17.16C188.614 17.4 189.187 17.6533 189.614 17.92C191.161 18.9067 191.934 20.44 191.934 22.52C191.934 24.6533 191.147 26.3733 189.574 27.68C188.001 28.9867 185.934 29.64 183.374 29.64C180.147 29.64 177.547 28.6133 175.574 26.56ZM189.164 14.92V9.12H192.084V4.24H199.204V9.12H203.804V14.92H199.204V20.8C199.204 21.6 199.244 22.2 199.324 22.6C199.404 23 199.671 23.36 200.124 23.68C200.578 24 201.164 24.16 201.884 24.16C202.364 24.16 202.924 24.0667 203.564 23.88L204.444 28.52C203.511 28.8933 202.631 29.16 201.804 29.32C200.978 29.48 200.124 29.56 199.244 29.56C196.951 29.56 195.124 28.88 193.764 27.52C193.124 26.88 192.684 26.1867 192.444 25.44C192.204 24.6933 192.084 23.64 192.084 22.28V14.92H189.164Z" fill="#964B00"/>
</svg>
