<svg width="100" height="100" viewBox="0 0 100 100" fill="none" xmlns="http://www.w3.org/2000/svg">
<path d="M60.9486 98.438H17.8074C14.7074 98.438 12.1855 95.9161 12.1855 92.8161V7.18486C12.1855 4.08486 14.7074 1.56299 17.8074 1.56299H60.9486C64.0486 1.56299 66.5705 4.08486 66.5705 7.18486V26.4077C66.5705 27.2706 65.8709 27.9702 65.008 27.9702C64.1451 27.9702 63.4455 27.2706 63.4455 26.4077V7.18486C63.4455 5.80811 62.3254 4.68799 60.9486 4.68799H17.8074C16.4307 4.68799 15.3105 5.80811 15.3105 7.18486V92.8161C15.3105 94.1929 16.4307 95.313 17.8074 95.313H60.9486C62.3254 95.313 63.4455 94.1929 63.4455 92.8161V72.0343C63.4455 71.1714 64.1451 70.4718 65.008 70.4718C65.8709 70.4718 66.5705 71.1714 66.5705 72.0343V92.8159C66.5705 95.9161 64.0486 98.438 60.9486 98.438Z" fill="#E58D35"/>
<path d="M51.8556 10.7203H26.8999C26.223 10.7203 25.6231 10.2846 25.414 9.64085L23.4538 3.60823C23.1872 2.78753 23.6364 1.90589 24.4569 1.63929C25.2776 1.37347 26.1593 1.8219 26.4259 2.64241L28.0353 7.59534H50.7204L52.3298 2.64241C52.5964 1.8219 53.4769 1.37288 54.2987 1.63929C55.1192 1.90589 55.5685 2.78753 55.3019 3.60823L53.3417 9.64085C53.1323 10.2844 52.5325 10.7203 51.8556 10.7203Z" fill="#E58D35"/>
<path d="M42.9412 91.7482H35.8131C33.4812 91.7482 31.584 89.851 31.584 87.5191C31.584 85.1873 33.4812 83.29 35.8131 83.29H42.9412C45.273 83.29 47.1703 85.1873 47.1703 87.5191C47.1703 89.851 45.2732 91.7482 42.9412 91.7482ZM35.8131 86.4148C35.2043 86.4148 34.709 86.9102 34.709 87.5189C34.709 88.1277 35.2043 88.623 35.8131 88.623H42.9412C43.55 88.623 44.0453 88.1277 44.0453 87.5189C44.0453 86.9102 43.55 86.4148 42.9412 86.4148H35.8131Z" fill="#E58D35"/>
<path d="M58.651 74.4599C44.7342 74.4599 33.4121 63.1376 33.4121 49.2208C33.4121 35.304 44.7342 23.9819 58.651 23.9819C65.2096 23.9819 71.4236 26.4854 76.1482 31.0315L73.9814 33.2833C69.842 29.3003 64.3975 27.1069 58.651 27.1069C46.4572 27.1069 36.5371 37.027 36.5371 49.2208C36.5371 61.4146 46.4572 71.3349 58.651 71.3349C70.8447 71.3349 80.765 61.4146 80.765 49.2208C80.765 45.4528 79.8012 41.7335 77.9777 38.4649L80.7068 36.9425C82.7893 40.6753 83.89 44.9214 83.89 49.2208C83.89 63.1378 72.5678 74.4599 58.651 74.4599Z" fill="#E58D35"/>
<path d="M57.8668 61.3553C56.5675 61.3553 55.2679 60.8607 54.2789 59.8715L46.4974 52.0902C44.5191 50.1119 44.5191 46.8928 46.4974 44.9143C48.4761 42.9359 51.6953 42.9357 53.6736 44.9141L57.7984 49.0387L79.0982 25.3285C79.115 25.3098 79.1324 25.2916 79.1501 25.2736C80.1019 24.3121 81.3718 23.7799 82.7261 23.7746C82.7328 23.7746 82.7396 23.7744 82.7464 23.7744C84.0955 23.7744 85.364 24.2979 86.3209 25.2492C88.2986 27.216 88.3089 30.4295 86.3441 32.4125C84.0871 34.6904 79.0984 40.3084 74.274 45.741C69.1638 51.4957 63.8798 57.4463 61.4548 59.8713C60.4658 60.8605 59.1664 61.3553 57.8668 61.3553ZM50.0857 46.5539C49.5863 46.5539 49.0873 46.7439 48.707 47.124C47.947 47.884 47.947 49.1207 48.7072 49.8805L56.4884 57.6617C57.2484 58.4221 58.4851 58.4221 59.2449 57.6617C61.6044 55.3022 66.8574 49.3869 71.9371 43.6664C77.0126 37.9506 81.8068 32.552 84.124 30.2131C84.8781 29.452 84.8751 28.2191 84.1169 27.4652C83.7501 27.1006 83.2634 26.8996 82.7457 26.8996C82.7429 26.8996 82.7404 26.8996 82.7378 26.8996C82.2304 26.9018 81.7544 27.0967 81.3935 27.4494L59.0216 52.3535C58.7349 52.6725 58.3298 52.8598 57.9011 52.8711C57.4726 52.8813 57.0578 52.7174 56.7546 52.4141L51.4642 47.1238C51.0841 46.7439 50.5849 46.5539 50.0857 46.5539Z" fill="#E58D35"/>
</svg>
