<svg width="100" height="100" viewBox="0 0 100 100" fill="none" xmlns="http://www.w3.org/2000/svg">
<path d="M53.2892 15.4008C53.1748 15.1718 52.9863 14.9881 52.7544 14.8796C52.5225 14.7711 52.2608 14.744 52.0116 14.8029C51.7625 14.8617 51.5404 15.003 51.3816 15.2037C51.2227 15.4045 51.1363 15.6531 51.1364 15.9091V52.7386C51.1364 52.9586 51.2003 53.1738 51.3203 53.3582C51.4402 53.5425 51.6111 53.6881 51.8122 53.7773C52.7704 54.1938 53.5558 54.9278 54.0363 55.8556C54.5168 56.7834 54.663 57.8484 54.4503 58.8713C54.2375 59.8943 53.6789 60.8127 52.8683 61.472C52.0578 62.1314 51.0449 62.4913 50 62.4913C48.9552 62.4913 47.9422 62.1314 47.1317 61.472C46.3212 60.8127 45.7625 59.8943 45.5498 58.8713C45.337 57.8484 45.4832 56.7834 45.9637 55.8556C46.4442 54.9278 47.2297 54.1938 48.1879 53.7773C48.3889 53.6881 48.5598 53.5425 48.6798 53.3582C48.7997 53.1738 48.8636 52.9586 48.8637 52.7386V15.9091C48.8637 15.6531 48.7773 15.4045 48.6185 15.2037C48.4596 15.003 48.2376 14.8617 47.9884 14.8029C47.7392 14.744 47.4775 14.7711 47.2456 14.8796C47.0137 14.9881 46.8253 15.1718 46.7108 15.4008L25.1199 58.5826C25.0411 58.7404 25 58.9145 25 59.0909C25 59.2673 25.0411 59.4414 25.1199 59.5992L34.5248 78.4091H30.6818C30.3805 78.4091 30.0914 78.5288 29.8783 78.7419C29.6652 78.955 29.5455 79.2441 29.5455 79.5454V86.3636C29.5455 86.665 29.6652 86.9541 29.8783 87.1672C30.0914 87.3803 30.3805 87.5 30.6818 87.5H32.9546V97.7273C32.9546 98.0287 33.0743 98.3177 33.2874 98.5308C33.5005 98.7439 33.7896 98.8636 34.0909 98.8636C34.3923 98.8636 34.6814 98.7439 34.8945 98.5308C35.1076 98.3177 35.2273 98.0287 35.2273 97.7273V87.5H64.7728V97.7273C64.7728 98.0287 64.8925 98.3177 65.1056 98.5308C65.3187 98.7439 65.6077 98.8636 65.9091 98.8636C66.2105 98.8636 66.4995 98.7439 66.7126 98.5308C66.9258 98.3177 67.0455 98.0287 67.0455 97.7273V87.5H69.3182C69.6196 87.5 69.9086 87.3803 70.1217 87.1672C70.3348 86.9541 70.4546 86.665 70.4546 86.3636V79.5454C70.4546 79.2441 70.3348 78.955 70.1217 78.7419C69.9086 78.5288 69.6196 78.4091 69.3182 78.4091H65.4752L74.8801 59.5992C74.959 59.4414 75.0001 59.2673 75.0001 59.0909C75.0001 58.9145 74.959 58.7404 74.8801 58.5826L53.2892 15.4008ZM68.1818 85.2273H31.8182V80.6818H68.1818V85.2273ZM62.9339 78.4091H37.0662L27.4071 59.0909L46.5909 20.7225V52.0455C45.2911 52.7959 44.2752 53.9543 43.7008 55.341C43.1265 56.7276 43.0257 58.2651 43.4142 59.7148C43.8026 61.1646 44.6586 62.4457 45.8494 63.3594C47.0401 64.2731 48.4991 64.7684 50 64.7684C51.5009 64.7684 52.9599 64.2731 54.1507 63.3594C55.3414 62.4457 56.1974 61.1646 56.5859 59.7148C56.9743 58.2651 56.8736 56.7276 56.2992 55.341C55.7248 53.9543 54.7089 52.7959 53.4091 52.0455V20.7225L72.593 59.0909L62.9339 78.4091Z" fill="#E58D35"/>
<path d="M89.7731 40.909H87.4737C87.2833 33.4177 84.8394 26.1578 80.4608 20.0764C76.0823 13.9951 69.9723 9.37468 62.9283 6.81806H81.9799C82.2565 7.88926 82.9142 8.82282 83.8299 9.44374C84.7455 10.0647 85.8562 10.3303 86.9537 10.1909C88.0513 10.0515 89.0603 9.51663 89.7916 8.68651C90.523 7.85639 90.9265 6.78803 90.9265 5.6817C90.9265 4.57536 90.523 3.50701 89.7916 2.67689C89.0603 1.84677 88.0513 1.31187 86.9537 1.17247C85.8562 1.03307 84.7455 1.29873 83.8299 1.91965C82.9142 2.54057 82.2565 3.47413 81.9799 4.54533H54.5458V2.27261C54.5458 1.97122 54.4261 1.68218 54.213 1.46907C53.9999 1.25597 53.7108 1.13624 53.4094 1.13624H46.5912C46.2899 1.13624 46.0008 1.25597 45.7877 1.46907C45.5746 1.68218 45.4549 1.97122 45.4549 2.27261V4.54533H18.0208C17.7442 3.47413 17.0864 2.54057 16.1708 1.91965C15.2551 1.29873 14.1444 1.03307 13.0469 1.17247C11.9494 1.31187 10.9404 1.84677 10.2091 2.67689C9.47771 3.50701 9.07422 4.57536 9.07422 5.6817C9.07422 6.78803 9.47771 7.85639 10.2091 8.68651C10.9404 9.51663 11.9494 10.0515 13.0469 10.1909C14.1444 10.3303 15.2551 10.0647 16.1708 9.44374C17.0864 8.82282 17.7442 7.88926 18.0208 6.81806H37.0722C30.0281 9.37468 23.9182 13.9951 19.5396 20.0764C15.161 26.1578 12.7171 33.4177 12.5267 40.909H10.2276C9.92623 40.909 9.63719 41.0287 9.42408 41.2418C9.21097 41.4549 9.09125 41.7439 9.09125 42.0453V48.8635C9.09125 49.1649 9.21097 49.4539 9.42408 49.667C9.63719 49.8802 9.92623 49.9999 10.2276 49.9999H17.0458C17.3472 49.9999 17.6362 49.8802 17.8493 49.667C18.0624 49.4539 18.1822 49.1649 18.1822 48.8635V42.0453C18.1822 41.7439 18.0624 41.4549 17.8493 41.2418C17.6362 41.0287 17.3472 40.909 17.0458 40.909H14.7997C15.0277 32.5424 18.2449 24.5342 23.8685 18.3352C29.492 12.1362 37.15 8.15648 45.4549 7.11704V9.09079C45.4549 9.39217 45.5746 9.68121 45.7877 9.89432C46.0008 10.1074 46.2899 10.2271 46.5912 10.2271H53.4094C53.7108 10.2271 53.9999 10.1074 54.213 9.89432C54.4261 9.68121 54.5458 9.39217 54.5458 9.09079V7.11704C62.8507 8.15648 70.5086 12.1362 76.1322 18.3352C81.7558 24.5342 84.973 32.5424 85.201 40.909H82.9549C82.6535 40.909 82.3645 41.0287 82.1514 41.2418C81.9382 41.4549 81.8185 41.7439 81.8185 42.0453V48.8635C81.8185 49.1649 81.9382 49.4539 82.1514 49.667C82.3645 49.8802 82.6535 49.9999 82.9549 49.9999H89.7731C90.0744 49.9999 90.3635 49.8802 90.5766 49.667C90.7897 49.4539 90.9094 49.1649 90.9094 48.8635V42.0453C90.9094 41.7439 90.7897 41.4549 90.5766 41.2418C90.3635 41.0287 90.0744 40.909 89.7731 40.909ZM15.9094 47.7272H11.364V43.1817H15.9094V47.7272ZM86.364 3.40897C86.8135 3.40897 87.2529 3.54226 87.6266 3.79199C88.0004 4.04172 88.2917 4.39667 88.4637 4.81196C88.6357 5.22725 88.6807 5.68422 88.593 6.12508C88.5053 6.56595 88.2889 6.97091 87.971 7.28876C87.6532 7.6066 87.2482 7.82306 86.8074 7.91075C86.3665 7.99845 85.9095 7.95344 85.4942 7.78142C85.0789 7.60941 84.724 7.3181 84.4743 6.94436C84.2245 6.57061 84.0912 6.1312 84.0912 5.6817C84.0919 5.07912 84.3315 4.50139 84.7576 4.0753C85.1837 3.64921 85.7614 3.40957 86.364 3.40897ZM13.6367 7.95442C13.1872 7.95442 12.7478 7.82113 12.374 7.5714C12.0003 7.32167 11.709 6.96672 11.537 6.55143C11.365 6.13614 11.3199 5.67917 11.4076 5.23831C11.4953 4.79744 11.7118 4.39248 12.0296 4.07464C12.3475 3.75679 12.7524 3.54033 13.1933 3.45264C13.6342 3.36494 14.0911 3.40995 14.5064 3.58197C14.9217 3.75399 15.2767 4.04529 15.5264 4.41904C15.7761 4.79278 15.9094 5.23219 15.9094 5.6817C15.9088 6.28428 15.6692 6.862 15.2431 7.28809C14.817 7.71418 14.2393 7.95382 13.6367 7.95442ZM52.2731 7.95442H47.7276V3.40897H52.2731V7.95442ZM88.6367 47.7272H84.0912V43.1817H88.6367V47.7272Z" fill="#E58D35"/>
</svg>
