<svg width="80" height="81" viewBox="0 0 80 81" fill="none" xmlns="http://www.w3.org/2000/svg">
<rect y="0.5" width="80" height="80" rx="40" fill="#964B00"/>
<path d="M30.4352 50.1945C35.0303 54.7821 40.0636 58.9089 45.4629 62.5157C47.768 64.0543 50.5337 64.7497 53.2923 64.4843C56.051 64.2188 58.6334 63.0088 60.6027 61.0588L62.3336 59.3274C63.4337 58.2171 64.0509 56.7173 64.0509 55.1543C64.0509 53.5913 63.4337 52.0915 62.3335 50.9812L58.0552 46.7028C57.4604 46.1237 56.7521 45.6741 55.9748 45.3823C55.1976 45.0906 54.3684 44.9631 53.5394 45.0079C52.7104 45.0526 51.8997 45.2687 51.1585 45.6424C50.4172 46.0161 49.7613 46.5394 49.2324 47.1792C48.8868 47.5286 48.4321 47.7492 47.9438 47.8044C47.4555 47.8597 46.963 47.7462 46.548 47.4829C41.089 44.0329 36.4676 39.4096 33.02 33.949C32.7596 33.5351 32.6488 33.0445 32.7059 32.5589C32.763 32.0732 32.9846 31.6217 33.3339 31.2794C33.9746 30.7511 34.4987 30.0955 34.873 29.3541C35.2472 28.6128 35.4636 27.8018 35.5082 26.9725C35.5529 26.1433 35.425 25.3138 35.1325 24.5365C34.8401 23.7592 34.3894 23.0511 33.8092 22.457L29.5309 18.1782C28.4232 17.073 26.9224 16.4523 25.3576 16.4523C23.7929 16.4523 22.292 17.073 21.1843 18.1782L19.4526 19.9103C17.508 21.8509 16.2922 24.4027 16.0103 27.1354C15.7284 29.8682 16.3976 32.6145 17.905 34.9112C21.5637 40.4092 25.7612 45.5289 30.4352 50.1945ZM20.6678 21.1255C21.9359 19.8568 23.3876 18.0394 25.3579 18.1707C25.9072 18.1696 26.4512 18.2771 26.9588 18.4869C27.4664 18.6968 27.9275 19.0048 28.3157 19.3933L32.5941 23.6722C33.0144 24.1076 33.3379 24.6268 33.5435 25.196C33.7491 25.7651 33.8322 26.3713 33.7872 26.9747C33.7423 27.5782 33.5704 28.1653 33.2827 28.6977C32.9951 29.2301 32.5982 29.6958 32.1181 30.0641C31.4918 30.6813 31.0955 31.4943 30.9951 32.3679C30.8948 33.2415 31.0964 34.1231 31.5665 34.8663C35.1505 40.5429 39.9548 45.3492 45.6299 48.9356C46.3739 49.4097 47.2578 49.6145 48.1344 49.516C49.011 49.4175 49.8274 49.0216 50.4476 48.3943C50.8633 47.8809 51.3853 47.4636 51.9777 47.1712C52.5701 46.8788 53.2188 46.7181 53.8792 46.7003C54.4287 46.6977 54.9733 46.804 55.4815 47.013C55.9896 47.222 56.4514 47.5296 56.84 47.9181L61.1184 52.1965C61.5081 52.584 61.817 53.045 62.0273 53.5527C62.2376 54.0604 62.3451 54.6048 62.3437 55.1543C62.4799 57.1218 60.6333 58.5981 59.3874 59.8435C57.6996 61.5133 55.4869 62.5489 53.1235 62.7752C50.7602 63.0016 48.3911 62.4047 46.4171 61.0856C35.6903 53.9173 26.4869 44.6984 19.3368 33.9595C18.048 31.9938 17.4767 29.6437 17.7192 27.3057C17.9616 24.9677 19.0031 22.7849 20.6678 21.1255Z" fill="#ECF0F0"/>
<path d="M40.2924 18.8915C51.7558 18.6521 61.8591 28.7564 61.6201 40.219C61.6238 40.4445 61.716 40.6595 61.8768 40.8176C62.0376 40.9758 62.2541 41.0644 62.4796 41.0644C62.7052 41.0643 62.9217 40.9757 63.0824 40.8175C63.2432 40.6593 63.3353 40.4443 63.339 40.2188C63.5965 27.8334 52.6817 16.9163 40.2956 17.1729C40.0699 17.1758 39.8544 17.2674 39.6956 17.4279C39.5369 17.5884 39.4477 17.8049 39.4473 18.0306C39.4468 18.2563 39.5353 18.4732 39.6934 18.6342C39.8515 18.7953 40.0667 18.8877 40.2924 18.8915Z" fill="#ECF0F0"/>
<path d="M39.4355 32.1505C39.4356 32.3784 39.5261 32.597 39.6873 32.7582C39.8484 32.9193 40.067 33.0099 40.2949 33.0099C42.2037 33.0191 44.0317 33.7814 45.3814 35.1312C46.7311 36.4809 47.4935 38.3089 47.5026 40.2177C47.5026 40.3306 47.5249 40.4423 47.568 40.5466C47.6112 40.6508 47.6745 40.7456 47.7544 40.8254C47.8342 40.9052 47.9289 40.9685 48.0332 41.0117C48.1374 41.0549 48.2492 41.0771 48.3621 41.0771C48.4749 41.0771 48.5867 41.0548 48.6909 41.0117C48.7952 40.9685 48.8899 40.9052 48.9697 40.8254C49.0496 40.7455 49.1129 40.6508 49.156 40.5465C49.1992 40.4423 49.2214 40.3305 49.2214 40.2176C49.2212 37.8503 48.2806 35.58 46.6066 33.906C44.9326 32.232 42.6623 31.2914 40.2949 31.2911C40.067 31.2911 39.8484 31.3817 39.6873 31.5429C39.5261 31.704 39.4356 31.9226 39.4355 32.1505Z" fill="#ECF0F0"/>
<path d="M54.5617 40.2185C54.5651 40.4442 54.6571 40.6595 54.8179 40.818C54.9787 40.9764 55.1954 41.0652 55.4211 41.0652C55.6469 41.0652 55.8635 40.9764 56.0243 40.8179C56.1851 40.6595 56.2771 40.4442 56.2805 40.2184C56.4579 31.6252 48.8874 24.0545 40.2938 24.2321C40.0688 24.2365 39.8545 24.329 39.697 24.4896C39.5394 24.6503 39.4511 24.8664 39.4512 25.0915C39.4512 25.3165 39.5395 25.5326 39.6971 25.6932C39.8547 25.8539 40.069 25.9463 40.294 25.9507C44.0726 25.9683 47.6915 27.4771 50.3634 30.1491C53.0353 32.821 54.5441 36.4399 54.5617 40.2185Z" fill="#ECF0F0"/>
</svg>
