<svg width="100" height="100" viewBox="0 0 100 100" fill="none" xmlns="http://www.w3.org/2000/svg">
<g clip-path="url(#clip0_176_1615)">
<path d="M66.5578 7.98877H41.0492C40.2279 7.98877 39.5625 8.6542 39.5625 9.47549C39.5625 10.2968 40.2281 10.9622 41.0492 10.9622H66.5576C67.3789 10.9622 68.0445 10.2968 68.0445 9.47549C68.0445 8.6542 67.3789 7.98877 66.5578 7.98877Z" fill="#E58D35"/>
<path d="M52.4088 14.3242H41.0492C40.2279 14.3242 39.5625 14.9898 39.5625 15.8109C39.5625 16.6322 40.2281 17.2977 41.0492 17.2977H52.4088C53.2301 17.2977 53.8955 16.6322 53.8955 15.8109C53.8955 14.9896 53.2299 14.3242 52.4088 14.3242Z" fill="#E58D35"/>
<path d="M93.5807 14.5838C92.7596 14.5838 92.0939 15.2492 92.0939 16.0705C92.0939 16.8916 92.7594 17.5572 93.5807 17.5572C95.0434 17.5572 96.2332 18.7471 96.2332 20.2098V62.4525H85.3828V17.557H87.8605C88.6816 17.557 89.3473 16.8916 89.3473 16.0703C89.3473 15.2492 88.6818 14.5836 87.8605 14.5836H85.3828V4.46699C85.3828 2.00391 83.3789 0 80.9158 0H18.6875C16.2244 0 14.2205 2.00391 14.2205 4.46699V14.5838H6.41895C3.3168 14.5838 0.792969 17.1076 0.792969 20.2098V63.9393V77.6391C0.792969 80.7412 3.3168 83.265 6.41895 83.265H15.5748C16.3959 83.265 17.0615 82.5996 17.0615 81.7783C17.0615 80.9572 16.3961 80.2916 15.5748 80.2916H6.41895C4.95625 80.2916 3.76641 79.1018 3.76641 77.6391V65.4258H15.707H83.8959H96.233V77.6391C96.233 79.1018 95.0432 80.2916 93.5805 80.2916H60.6984H39.3012H22.5789C21.7578 80.2916 21.0922 80.957 21.0922 81.7783C21.0922 82.5994 21.7576 83.265 22.5789 83.265H37.8144V91.1432C33.8102 91.2147 30.5738 94.4922 30.5738 98.5133C30.5738 99.3344 31.2393 100 32.0605 100H67.9391C68.7602 100 69.4258 99.3346 69.4258 98.5133C69.4258 94.4922 66.1895 91.2145 62.1852 91.1432V83.265H93.5807C96.6828 83.265 99.2066 80.7412 99.2066 77.6391V63.9393V20.2098C99.2064 17.1076 96.6826 14.5838 93.5807 14.5838ZM14.2205 62.4525H3.76641V20.2098C3.76641 18.7471 4.95625 17.5572 6.41895 17.5572H14.2205V62.4525ZM82.4094 21.7201H31.7633C30.9422 21.7201 30.2766 22.3855 30.2766 23.2068C30.2766 24.0281 30.942 24.6936 31.7633 24.6936H82.4094V62.4525H17.1938V24.6936H24.0324C24.8535 24.6936 25.5191 24.0281 25.5191 23.2068C25.5191 22.3855 24.8537 21.7201 24.0324 21.7201H17.1938V4.46699C17.1938 3.64336 17.8637 2.97344 18.6873 2.97344H80.9158C81.7395 2.97344 82.4094 3.64336 82.4094 4.46699V21.7201ZM40.7877 83.2648H59.2117V91.1396H40.7877V83.2648ZM66.1939 97.0266H33.8057C34.4166 95.3295 36.0426 94.1131 37.9475 94.1131H39.3012H60.6984H62.0522C63.957 94.1131 65.583 95.3295 66.1939 97.0266Z" fill="#E58D35"/>
<path d="M50.7977 68.3657C48.3203 68.3657 46.3047 70.3813 46.3047 72.8589C46.3047 75.3362 48.3203 77.3519 50.7977 77.3519C53.2754 77.3519 55.2908 75.3364 55.2908 72.8589C55.2908 70.3813 53.2752 68.3657 50.7977 68.3657ZM50.7977 74.3784C49.96 74.3786 49.2781 73.6968 49.2781 72.8589C49.2781 72.0208 49.96 71.3392 50.7977 71.3392C51.6357 71.3392 52.3174 72.021 52.3174 72.8589C52.3174 73.6968 51.6355 74.3784 50.7977 74.3784Z" fill="#E58D35"/>
<path d="M33.4691 15.3771L28.5758 6.90156C28.3102 6.4416 27.8195 6.1582 27.2883 6.1582C26.757 6.1582 26.2664 6.4416 26.0008 6.90156L21.1074 15.3771C20.8418 15.8371 20.8418 16.4039 21.1074 16.8639C21.373 17.3238 21.8637 17.6072 22.3949 17.6072H32.1818C32.7129 17.6072 33.2037 17.3238 33.4691 16.8639C33.7348 16.4039 33.7348 15.8371 33.4691 15.3771ZM24.9697 14.634L27.2883 10.6184L29.6068 14.634H24.9697Z" fill="#E58D35"/>
<path d="M78.0295 30.1753H56.4984C55.6773 30.1753 55.0117 30.8407 55.0117 31.662C55.0117 32.4831 55.6771 33.1487 56.4984 33.1487H78.0295C78.8506 33.1487 79.5162 32.4833 79.5162 31.662C79.5162 30.8407 78.8506 30.1753 78.0295 30.1753Z" fill="#E58D35"/>
<path d="M78.0295 36.7139H56.4984C55.6773 36.7139 55.0117 37.3793 55.0117 38.2006C55.0117 39.0219 55.6771 39.6873 56.4984 39.6873H78.0295C78.8506 39.6873 79.5162 39.0219 79.5162 38.2006C79.5162 37.3793 78.8506 36.7139 78.0295 36.7139Z" fill="#E58D35"/>
<path d="M78.0295 43.2524H56.4984C55.6773 43.2524 55.0117 43.9179 55.0117 44.7392C55.0117 45.5603 55.6771 46.2259 56.4984 46.2259H78.0295C78.8506 46.2259 79.5162 45.5604 79.5162 44.7392C79.5162 43.9179 78.8506 43.2524 78.0295 43.2524Z" fill="#E58D35"/>
<path d="M78.0295 49.791H56.4984C55.6773 49.791 55.0117 50.4564 55.0117 51.2777C55.0117 52.0988 55.6771 52.7645 56.4984 52.7645H78.0295C78.8506 52.7645 79.5162 52.099 79.5162 51.2777C79.5162 50.4564 78.8506 49.791 78.0295 49.791Z" fill="#E58D35"/>
<path d="M66.559 56.3291H56.4984C55.6773 56.3291 55.0117 56.9945 55.0117 57.8158C55.0117 58.6369 55.6771 59.3025 56.4984 59.3025H66.559C67.3801 59.3025 68.0457 58.6371 68.0457 57.8158C68.0457 56.9945 67.3803 56.3291 66.559 56.3291Z" fill="#E58D35"/>
<path d="M49.8014 28.9229H22.3949C21.5738 28.9229 20.9082 29.5883 20.9082 30.4096V47.9391V57.816C20.9082 58.6371 21.5736 59.3027 22.3949 59.3027H49.8014C50.6225 59.3027 51.2881 58.6373 51.2881 57.816V49.4164V30.4096C51.2881 29.5883 50.6225 28.9229 49.8014 28.9229ZM23.8818 31.8963H48.3146V47.4412C48.1482 47.4127 47.9818 47.3877 47.8156 47.3691C45.2244 47.0787 43.7346 48.1156 42.5369 48.9484C41.6379 49.5734 40.8615 50.1133 39.5611 50.2187C37.4576 50.3914 36.109 49.273 34.4006 47.8598C32.4988 46.2869 30.3418 44.5061 26.9133 44.7125C25.8852 44.775 24.8719 45.0113 23.8818 45.4166V31.8963ZM48.3148 56.3293H23.8816V48.7381C24.9363 48.1012 26.0137 47.7461 27.0936 47.6805C29.352 47.5428 30.8135 48.7516 32.5055 50.151C34.3752 51.6975 36.493 53.4488 39.8016 53.1824C41.9008 53.0121 43.1945 52.1125 44.2344 51.3898C45.3008 50.6484 46.0063 50.1592 47.4852 50.324C47.76 50.3549 48.0373 50.4064 48.3148 50.4785V56.3293Z" fill="#E58D35"/>
<path d="M40.0213 35.2173C37.5131 35.2173 35.4727 37.2577 35.4727 39.7659C35.4727 42.2739 37.5131 44.3146 40.0213 44.3146C42.5295 44.3146 44.5699 42.2741 44.5699 39.7659C44.5699 37.2577 42.5295 35.2173 40.0213 35.2173ZM40.0213 41.3413C39.1527 41.3413 38.4459 40.6345 38.4459 39.7659C38.4459 38.8972 39.1527 38.1905 40.0213 38.1905C40.8898 38.1905 41.5967 38.8974 41.5967 39.7659C41.5967 40.6345 40.8898 41.3413 40.0213 41.3413Z" fill="#E58D35"/>
</g>
<defs>
<clipPath id="clip0_176_1615">
<rect width="100" height="100" fill="white"/>
</clipPath>
</defs>
</svg>
